<?xml version="1.0" encoding="UTF-8"?>
<svg xmlns="http://www.w3.org/2000/svg" xmlns:xlink="http://www.w3.org/1999/xlink" version="1.1" width="235px" height="235px" viewBox="20 20 195 195">
    <defs />
    <g>
        <path d="M 79.75 89 L 104.75 110.5 L 79.75 132 L 79.75 121.5 C 61.66 121.5 47 136.16 47 154.25 C 47 172.34 61.66 187 79.75 187 L 145 187 L 145 209 L 79.75 209 C 49.51 209 25 184.49 25 154.25 C 25 124.01 49.51 99.5 79.75 99.5 Z" fill="rgb(255, 255, 255)" transform="rotate(-45,85,149)" pointer-events="none" />
        <path d="M 134.75 29 L 159.75 50.5 L 134.75 72 L 134.75 61.5 C 116.66 61.5 102 76.16 102 94.25 C 102 112.34 116.66 127 134.75 127 L 210 127 L 210 149 L 134.75 149 C 104.51 149 80 124.49 80 94.25 C 80 64.01 104.51 39.5 134.75 39.5 Z" fill="rgb(255, 255, 255)" transform="rotate(-225,145,89)" pointer-events="none" />
    </g>
</svg>